<?xml version="1.0" encoding="UTF-8"?>
<svg width="726px" height="104px" viewBox="0 0 726 104" version="1.1" xmlns="http://www.w3.org/2000/svg" xmlns:xlink="http://www.w3.org/1999/xlink">
    <title>JOYSTICK</title>
    <g id="Page-1" stroke="none" stroke-width="1" fill="none" fill-rule="evenodd">
        <g id="Artboard-Copy" transform="translate(-198, -133)" fill="#BBFCEF" fill-rule="nonzero">
            <g id="JOYSTICK" transform="translate(201, 134.12)">
                <g id="Group" transform="translate(0, 0)">
                    <path d="M1,85.4074599 L18.2259542,85.4074599 L18.2259542,85.4074599 C22.0050891,85.4074599 25.2340967,84.1439812 27.9129771,81.6170239 C30.5918575,79.0900665 31.9312977,76.0347454 31.9312977,72.4510604 L31.9312977,2.88003371 C31.9312977,2.32774896 32.379013,1.88003371 32.9312977,1.88003371 L46,1.88003371 C46.5522847,1.88003371 47,2.32774896 47,2.88003371 L47,72.6578115 L47,72.6578115 C47,77.6657815 45.7083969,82.2257909 43.1251908,86.3378396 C40.5419847,90.4498884 37.0737913,93.7349329 32.7206107,96.1929732 C28.36743,98.6510135 23.5358779,99.8800337 18.2259542,99.8800337 L1,99.8800337 C0.44771525,99.8800337 6.76353751e-17,99.4323185 0,98.8800337 L0,86.4074599 C-6.76353751e-17,85.8551751 0.44771525,85.4074599 1,85.4074599 Z" id="Path" stroke="#BBFCEF" stroke-width="5"></path>
                    <path d="M78,29.446841 C78,24.3469817 79.3794807,19.7180553 82.138442,15.5600618 C84.8974033,11.4020684 88.5800169,8.08256535 93.1862828,5.60155269 C97.7925487,3.12054004 102.902625,1.88003371 108.516511,1.88003371 L132.483489,1.88003371 C138.097375,1.88003371 143.219447,3.12054004 147.849704,5.60155269 C152.47996,8.08256535 156.162574,11.4020684 158.897544,15.5600618 C161.632515,19.7180553 163,24.3469817 163,29.446841 L163,72.3132264 C163,77.3671411 161.632515,81.9845813 158.897544,86.1655471 C156.162574,90.3465128 152.47996,93.6775021 147.849704,96.1585147 C143.219447,98.6395274 138.097375,99.8800337 132.483489,99.8800337 L108.516511,99.8800337 C102.902625,99.8800337 97.7925487,98.6395274 93.1862828,96.1585147 C88.5800169,93.6775021 84.8974033,90.3465128 82.138442,86.1655471 C79.3794807,81.9845813 78,77.3671411 78,72.3132264 L78,29.446841 Z M93.1862828,72.3821434 C93.1862828,75.9658284 94.6857183,79.0326357 97.6845893,81.5825654 C100.68346,84.132495 104.294101,85.4074599 108.516511,85.4074599 L132.483489,85.4074599 C136.753881,85.4074599 140.376517,84.132495 143.351397,81.5825654 C146.326277,79.0326357 147.813717,75.9658284 147.813717,72.3821434 L147.813717,29.377924 C147.813717,25.7942391 146.326277,22.7274317 143.351397,20.1775021 C140.376517,17.6275724 136.753881,16.3526075 132.483489,16.3526075 L108.516511,16.3526075 C104.294101,16.3526075 100.68346,17.6275724 97.6845893,20.1775021 C94.6857183,22.7274317 93.1862828,25.7942391 93.1862828,29.377924 L93.1862828,72.3821434 Z" id="Shape" stroke="#BBFCEF" stroke-width="5"></path>
                    <path d="M272.993499,1.88003371 C273.545784,1.88003371 273.993499,2.32774896 273.993499,2.88003371 C273.993499,3.09729134 273.922745,3.3086392 273.79194,3.48210662 L236.58963,52.8180803 C236.458825,52.9915477 236.388071,53.2028955 236.388071,53.4201532 L236.388071,98.8800337 C236.388071,99.4323185 235.940356,99.8800337 235.388071,99.8800337 L221.82804,99.8800337 C221.275756,99.8800337 220.82804,99.4323185 220.82804,98.8800337 L220.82804,53.4216469 C220.82804,53.2034703 220.756687,52.99128 220.624862,52.8174322 L219.427212,51.2380337 L255.771829,3.00882834 C255.836644,2.92281589 255.885469,2.82973301 255.918804,2.73314335 L256.258444,2.27878546 C256.447361,2.02771374 256.743298,1.88003371 257.057506,1.88003371 L272.993499,1.88003371 Z M200.016074,1.88003371 C200.329412,1.88003371 200.624635,2.02690171 200.813647,2.27681213 L217.956212,24.9430337 L208.751212,37.1590337 L183.216446,3.48424838 C182.882747,3.04417597 182.96898,2.41691067 183.409052,2.08321213 C183.5829,1.95138666 183.795091,1.88003371 184.013267,1.88003371 L200.016074,1.88003371 Z" id="Combined-Shape" stroke="#BBFCEF" stroke-width="5"></path>
                    <path d="M298,25.587488 C298,21.2227435 299.13388,17.2485288 301.401639,13.6648438 C303.669399,10.0811589 306.724907,7.22110262 310.568162,5.08467506 C314.411418,2.94824749 318.648548,1.88003371 323.279551,1.88003371 L374.987058,1.88003371 C375.539343,1.88003371 375.987058,2.32774896 375.987058,2.88003371 L375.987058,15.3526075 C375.987058,15.9048923 375.539343,16.3526075 374.987058,16.3526075 L323.279551,16.3526075 L323.279551,16.3526075 C320.510498,16.3526075 318.123382,17.2944735 316.118205,19.1782053 C314.113028,21.0619371 313.11044,23.3361987 313.11044,26.0009901 L313.11044,32.7548579 C313.11044,35.1899259 314.113028,37.2804088 316.118205,39.0263066 C318.123382,40.7722044 320.510498,41.6451533 323.279551,41.6451533 L355.720449,41.6451533 C360.399195,41.6451533 364.64826,42.713367 368.467645,44.8497946 C372.287029,46.9862222 375.330601,49.8577646 377.598361,53.4644219 C379.86612,57.0710792 381,61.0567801 381,65.4215246 L381,76.1036624 C381,80.4684069 379.86612,84.4541078 377.598361,88.0607651 C375.330601,91.6674224 372.287029,94.5389648 368.467645,96.6753924 C364.64826,98.8118199 360.399195,99.8800337 355.720449,99.8800337 L299.071613,99.8800337 C298.519329,99.8800337 298.071613,99.4323185 298.071613,98.8800337 L298.071613,86.3385428 C298.071613,85.7862581 298.519329,85.3385428 299.071613,85.3385428 L355.720449,85.3385428 L355.720449,85.3385428 C358.537245,85.3385428 360.936296,84.4311354 362.917601,82.6163206 C364.898907,80.8015058 365.88956,78.6076474 365.88956,76.0347454 L365.88956,65.4904416 C365.88956,62.9175396 364.898907,60.712195 362.917601,58.8744078 C360.936296,57.0366207 358.537245,56.1177271 355.720449,56.1177271 L323.279551,56.1177271 C318.648548,56.1177271 314.411418,55.0724857 310.568162,52.9820028 C306.724907,50.8915199 303.669399,48.0774083 301.401639,44.539668 C299.13388,41.0019278 298,37.09663 298,32.8237749 L298,25.587488 Z" id="Path" stroke="#BBFCEF" stroke-width="5"></path>
                    <path d="M453.097,33.8800337 L453.097582,98.8800337 C453.097582,99.4323185 452.649867,99.8800337 452.097582,99.8800337 L438.902418,99.8800337 C438.350133,99.8800337 437.902418,99.4323185 437.902418,98.8800337 L437.902,33.8800337 L453.097,33.8800337 Z M486,1.88003371 C486.552285,1.88003371 487,2.32774896 487,2.88003371 L487,15.3526075 C487,15.9048923 486.552285,16.3526075 486,16.3526075 L483.175989,16.3510361 C483.118856,16.3408924 483.060046,16.3356001 483,16.3356001 L411,16.3356001 C410.939954,16.3356001 410.881144,16.3408924 410.824011,16.3510361 L405,16.3526075 C404.447715,16.3526075 404,15.9048923 404,15.3526075 L404,2.88003371 C404,2.32774896 404.447715,1.88003371 405,1.88003371 L486,1.88003371 Z" id="Combined-Shape" stroke="#BBFCEF" stroke-width="5"></path>
                    <path d="M512,1.88003371 L525,1.88003371 C525.552285,1.88003371 526,2.32774896 526,2.88003371 L526,98.8800337 C526,99.4323185 525.552285,99.8800337 525,99.8800337 L512,99.8800337 C511.447715,99.8800337 511,99.4323185 511,98.8800337 L511,2.88003371 C511,2.32774896 511.447715,1.88003371 512,1.88003371 Z" id="Path" stroke="#BBFCEF" stroke-width="5"></path>
                    <path d="M556,29.446841 C556,24.3469817 557.322039,19.7180553 559.966116,15.5600618 C562.610194,11.4020684 566.143643,8.08256535 570.566464,5.60155269 C574.989285,3.12054004 579.892847,1.88003371 585.27715,1.88003371 L638,1.88003371 C638.552285,1.88003371 639,2.32774896 639,2.88003371 L639,15.3526075 C639,15.9048923 638.552285,16.3526075 638,16.3526075 L585.27715,16.3526075 L585.27715,16.3526075 C581.383145,16.3526075 578.06603,17.6275724 575.325804,20.1775021 C572.585578,22.7274317 571.215465,25.8172114 571.215465,29.446841 L571.215465,72.5888945 C571.215465,76.0806901 572.585578,79.0785804 575.325804,81.5825654 C578.06603,84.0865504 581.383145,85.3385428 585.27715,85.3385428 L638,85.3385428 C638.552285,85.3385428 639,85.7862581 639,86.3385428 L639,98.8800337 C639,99.4323185 638.552285,99.8800337 638,99.8800337 L585.27715,99.8800337 L585.27715,99.8800337 C579.892847,99.8800337 574.989285,98.6624997 570.566464,96.2274317 C566.143643,93.7923638 562.610194,90.5188054 559.966116,86.4067566 C557.322039,82.2947079 556,77.7576708 556,72.7956455 L556,29.446841 Z" id="Path" stroke="#BBFCEF" stroke-width="5"></path>
                    <path d="M713.701722,79.0875874 L722.021825,88.4250716 C722.756653,89.2497546 722.683811,90.5139878 721.859128,91.2488155 C721.846945,91.2596711 721.83463,91.2703771 721.822185,91.2809313 L709.727285,101.538156 C708.891077,102.247312 707.639804,102.151012 706.921956,101.322253 L706.527937,100.867 L706.497703,100.892915 C695.328261,88.0777159 691.083873,83.2079402 686.738757,78.2225946 L686.317711,77.7395105 C683.786722,74.8355938 681.145362,71.8050435 677.018237,67.0698085 C672.51443,61.9023894 672.51443,61.9023894 669.648371,58.6140318 C668.154914,56.9005218 667.750959,56.4370471 667.482735,56.1293008 L667.420478,56.0578714 L667.358203,55.9864203 C667.306421,55.9270084 667.253785,55.8666162 667.191749,55.7954396 C664.241011,52.4099265 664.102083,47.4987491 666.81651,43.9691643 L667.001699,43.7359374 C667.048354,43.6790119 667.088989,43.6294316 667.128264,43.58151 L667.186741,43.5101606 C667.365237,43.2923698 667.563988,43.0498655 668.227037,42.2408522 L668.452373,41.9659111 C668.653877,41.7200475 668.890772,41.4310025 669.17115,41.0889022 C670.18356,39.8536191 670.791006,39.1124492 671.410023,38.3571618 L671.617361,38.1041793 C672.48782,37.0420973 673.469876,35.8438509 675.679501,33.1477966 C679.52666,28.4537208 681.911899,25.5433938 684.263722,22.6738382 L684.634993,22.2208352 C686.848995,19.5194409 689.100001,16.7728973 692.579137,12.5278612 C692.645107,12.3733524 692.733185,12.2250741 692.84246,12.0867534 C692.852452,12.0741058 692.862596,12.0615796 692.872891,12.0491773 L700.684939,2.63764075 C701.020069,2.22873561 701.362632,1.81075973 701.712908,1.38337409 L701.719937,1.389 L702.274461,0.722676945 C702.967911,-0.112753475 704.201244,-0.242343311 705.053194,0.430707582 L717.447571,10.2224154 C718.314301,10.9071431 718.461844,12.1648484 717.777116,13.031579 C717.767125,13.0442265 717.75698,13.0567528 717.746686,13.069155 L715.448937,15.837 L700.703208,33.8287728 L700.146119,34.5084997 C697.794295,37.3780553 695.409057,40.2883822 691.561898,44.982458 C689.705812,47.2471437 688.7159,48.454976 687.93072,49.4130067 C687.904564,49.4443357 687.904918,49.4893771 687.931564,49.520311 C688.878066,50.6062988 689.943629,51.8288661 692.239103,54.4625665 L692.520535,54.7854655 C696.074448,58.8630289 698.526648,61.6765477 700.755358,64.2336459 L701.184166,64.7256368 C701.397411,64.9703019 701.609093,65.2131744 701.820009,65.4551674 L702.451253,66.1794216 C702.661431,66.4205691 702.87164,66.6617504 703.082673,66.9038787 L703.506077,67.3896687 C703.914387,67.8581413 704.327705,68.3323588 704.751677,68.8188008 L705.117822,69.2388959 C707.270429,71.7086773 709.729738,74.5303528 713.201679,78.5138663 L713.701722,79.0875874 Z" id="Combined-Shape"></path>
                </g>
            </g>
        </g>
    </g>
</svg>